# xmcd
#
# Track frame offsets:
# 150
# 17555
# 33280
# 48350
# 60987
# 74417
# 85482
# 98040
# 113322
# 124182
# 135865
# 148422
# 162670
# 175335
# 184632
#
# Disc length: 2798 seconds
#
#
# Revision: 3
# Processed by: cddbd v1.5.1PL0 Copyright (c) Steve Scherf et al.
# Submitted via: FreeRIP 2.70 
#
DISCID=c60aec0f
DTITLE=Merle Haggard - The Merle Haggard Collection - Disk 2
DYEAR=1997
DGENRE=Country
TTITLE0=Frankie and Johnny
TTITLE1=Mule Skinner Blues
TTITLE2=Train Whistle Blues
TTITLE3=The Bottle Let Me Down
TTITLE4=High On A Hilltop
TTITLE5=Sam Hill
TTITLE6=House Of Memories
TTITLE7=I Threw Away A Rose
TTITLE8=Shade Tree
TTITLE9=Corrina Corrina
TTITLE10=Every Fool Has A Rainbow
TTITLE11=Philadelphia Lawyer
TTITLE12=T.B.Blues
TTITLE13=Today I Started Loving You Again
TTITLE14=Medley-devil Woman
EXTD=Disk 2 of 2
EXTT0=
EXTT1=
EXTT2=
EXTT3=
EXTT4=
EXTT5=
EXTT6=
EXTT7=
EXTT8=
EXTT9=
EXTT10=
EXTT11=
EXTT12=
EXTT13=
EXTT14=
PLAYORDER=
